<?xml version="1.0" encoding="UTF-8" standalone="no"?>
<!-- Created with Inkscape (http://www.inkscape.org/) -->

<svg
   xmlns:dc="http://purl.org/dc/elements/1.1/"
   xmlns:cc="http://creativecommons.org/ns#"
   xmlns:rdf="http://www.w3.org/1999/02/22-rdf-syntax-ns#"
   xmlns:svg="http://www.w3.org/2000/svg"
   xmlns="http://www.w3.org/2000/svg"
   xmlns:sodipodi="http://sodipodi.sourceforge.net/DTD/sodipodi-0.dtd"
   xmlns:inkscape="http://www.inkscape.org/namespaces/inkscape"
   width="356"
   height="146"
   viewBox="0 0 94.191664 38.629168"
   version="1.1"
   id="svg8"
   inkscape:version="0.92.3 (2405546, 2018-03-11)"
   sodipodi:docname="Sonic_Outbreak_Mock.svg">
  <defs
     id="defs2" />
  <sodipodi:namedview
     id="base"
     pagecolor="#ffffff"
     bordercolor="#666666"
     borderopacity="1.0"
     inkscape:pageopacity="0.0"
     inkscape:pageshadow="2"
     inkscape:zoom="5.0572265"
     inkscape:cx="178.1394"
     inkscape:cy="73.323447"
     inkscape:document-units="px"
     inkscape:current-layer="layer1"
     showgrid="false"
     units="px"
     borderlayer="true"
     inkscape:window-width="1920"
     inkscape:window-height="1001"
     inkscape:window-x="0"
     inkscape:window-y="27"
     inkscape:window-maximized="1" />
  <metadata
     id="metadata5">
    <rdf:RDF>
      <cc:Work
         rdf:about="">
        <dc:format>image/svg+xml</dc:format>
        <dc:type
           rdf:resource="http://purl.org/dc/dcmitype/StillImage" />
        <dc:title />
      </cc:Work>
    </rdf:RDF>
  </metadata>
  <g
     inkscape:label="Layer 1"
     inkscape:groupmode="layer"
     id="layer1"
     transform="translate(0,-258.37082)">
    <g
       transform="translate(263.60512,111.3806)"
       id="Sonic_Outbreak"
       inkscape:export-xdpi="95.93"
       inkscape:export-ydpi="95.93">
      <g
         aria-label="SONIC"
         style="font-style:normal;font-variant:normal;font-weight:normal;font-stretch:normal;font-size:25.43605995px;line-height:125%;font-family:NiseSegaSonic;-inkscape-font-specification:'NiseSegaSonic, Normal';font-variant-ligatures:normal;font-variant-caps:normal;font-variant-numeric:normal;font-feature-settings:normal;text-align:center;letter-spacing:0px;word-spacing:0px;writing-mode:lr-tb;text-anchor:middle;fill:#0000b9;fill-opacity:1;stroke:#ffff00;stroke-width:1.32291663;stroke-linecap:butt;stroke-linejoin:miter;stroke-miterlimit:4;stroke-dasharray:none;stroke-opacity:1"
         id="Sonic">
        <path
           d="m -262.81036,154.75105 q 0,-2.85659 2.43431,-4.71958 2.45915,-1.86299 6.45837,-1.73879 3.62663,-0.1242 7.57617,0.39744 l -1.41587,5.0425 q -1.61459,-0.22356 -4.24762,-0.19872 -2.60819,0.0248 -2.85659,0.84455 -0.2484,0.81972 0.64584,1.1178 0.89423,0.27324 3.10498,0.44712 2.31011,0.17388 3.97439,1.68911 1.68911,1.4904 1.68911,4.2973 0.1242,2.93111 -2.21075,4.89346 -2.31011,1.96236 -5.46478,1.863 -3.17951,0.29808 -8.69397,-0.29808 l 1.6146,-5.0425 q 6.28449,0.27324 6.80613,-0.59616 0.54648,-0.8694 -0.47196,-1.26683 -0.91907,-0.32292 -2.68271,-0.32292 -1.76363,-0.0248 -3.9247,-1.39104 -2.38463,-1.78847 -2.33495,-5.01766 z"
           style="font-style:normal;font-variant:normal;font-weight:normal;font-stretch:normal;font-size:25.43605995px;font-family:NiseSegaSonic;-inkscape-font-specification:'NiseSegaSonic, Normal';font-variant-ligatures:normal;font-variant-caps:normal;font-variant-numeric:normal;font-feature-settings:normal;text-align:center;writing-mode:lr-tb;text-anchor:middle;fill:#0000b9;fill-opacity:1;stroke:#ffff00;stroke-width:1.32291663;stroke-miterlimit:4;stroke-dasharray:none;stroke-opacity:1"
           id="path29"
           inkscape:connector-curvature="0" />
        <path
           d="m -243.73332,158.25348 q 0,-4.39666 3.05531,-7.40229 3.05531,-3.03047 7.87425,-3.03047 4.86862,0 7.92393,2.78207 3.05531,2.78207 3.20435,7.65069 0,4.4215 -3.27887,7.52649 -3.27887,3.10499 -7.84941,3.10499 -4.59538,0 -7.77489,-3.10499 -3.15467,-3.10499 -3.15467,-7.52649 z m 8.64429,-2.93111 q -1.61459,1.1178 -2.23559,2.73239 -0.621,1.61459 0.3726,3.08015 1.04327,1.41587 2.75723,1.36619 1.73879,-0.0497 3.32854,-1.21715 1.6146,-1.06812 2.23559,-2.68271 0.621,-1.63944 -0.34775,-3.10499 -1.04328,-1.44071 -2.78207,-1.3662 -1.71396,0.0745 -3.32855,1.19232 z"
           style="font-style:normal;font-variant:normal;font-weight:normal;font-stretch:normal;font-size:25.43605995px;font-family:NiseSegaSonic;-inkscape-font-specification:'NiseSegaSonic, Normal';font-variant-ligatures:normal;font-variant-caps:normal;font-variant-numeric:normal;font-feature-settings:normal;text-align:center;writing-mode:lr-tb;text-anchor:middle;fill:#0000b9;fill-opacity:1;stroke:#ffff00;stroke-width:1.32291663;stroke-miterlimit:4;stroke-dasharray:none;stroke-opacity:1"
           id="path31"
           inkscape:connector-curvature="0" />
        <path
           d="M -220.08573,168.48752 V 148.6156 h 9.53852 l 4.76926,9.53852 v -9.53852 h 6.35902 v 19.87192 h -8.74365 l -5.56413,-9.53852 v 9.53852 z"
           style="font-style:normal;font-variant:normal;font-weight:normal;font-stretch:normal;font-size:25.43605995px;font-family:NiseSegaSonic;-inkscape-font-specification:'NiseSegaSonic, Normal';font-variant-ligatures:normal;font-variant-caps:normal;font-variant-numeric:normal;font-feature-settings:normal;text-align:center;writing-mode:lr-tb;text-anchor:middle;fill:#0000b9;fill-opacity:1;stroke:#ffff00;stroke-width:1.32291663;stroke-miterlimit:4;stroke-dasharray:none;stroke-opacity:1"
           id="path33"
           inkscape:connector-curvature="0" />
        <path
           d="M -197.82918,168.48752 V 148.6156 h 7.94877 v 19.87192 z"
           style="font-style:normal;font-variant:normal;font-weight:normal;font-stretch:normal;font-size:25.43605995px;font-family:NiseSegaSonic;-inkscape-font-specification:'NiseSegaSonic, Normal';font-variant-ligatures:normal;font-variant-caps:normal;font-variant-numeric:normal;font-feature-settings:normal;text-align:center;writing-mode:lr-tb;text-anchor:middle;fill:#0000b9;fill-opacity:1;stroke:#ffff00;stroke-width:1.32291663;stroke-miterlimit:4;stroke-dasharray:none;stroke-opacity:1"
           id="path35"
           inkscape:connector-curvature="0" />
        <path
           d="m -188.29066,158.25348 q -0.0994,-4.24762 2.90627,-7.27809 3.00563,-3.05531 7.52649,-3.15467 3.97438,-0.17388 6.65709,0.29808 l -2.18591,7.42713 q -0.34776,-0.52164 -1.19231,-1.04328 -0.84456,-0.52163 -2.35979,-0.17388 -1.51524,0.32292 -3.00563,1.56492 -1.41588,1.14263 -1.83815,2.55851 -0.42228,1.41587 0.62099,2.55851 0.72036,1.14263 2.33495,1.21715 1.6146,0.0497 3.12983,-0.99359 1.51524,-1.1178 2.28527,-1.96236 l 3.20435,8.61945 q -3.25403,0.89424 -7.65069,0.89424 -4.62022,-0.29808 -7.52649,-3.17951 -2.90627,-2.88143 -2.90627,-7.35261 z"
           style="font-style:normal;font-variant:normal;font-weight:normal;font-stretch:normal;font-size:25.43605995px;font-family:NiseSegaSonic;-inkscape-font-specification:'NiseSegaSonic, Normal';font-variant-ligatures:normal;font-variant-caps:normal;font-variant-numeric:normal;font-feature-settings:normal;text-align:center;writing-mode:lr-tb;text-anchor:middle;fill:#0000b9;fill-opacity:1;stroke:#ffff00;stroke-width:1.32291663;stroke-miterlimit:4;stroke-dasharray:none;stroke-opacity:1"
           id="path37"
           inkscape:connector-curvature="0" />
      </g>
      <g
         aria-label="OUTBREAK"
         transform="rotate(6.9817096)"
         style="font-style:normal;font-variant:normal;font-weight:normal;font-stretch:normal;font-size:22.70952797px;line-height:125%;font-family:'Central Television';-inkscape-font-specification:'Central Television, Normal';font-variant-ligatures:normal;font-variant-caps:normal;font-variant-numeric:normal;font-feature-settings:normal;text-align:center;letter-spacing:0px;word-spacing:0px;writing-mode:lr-tb;text-anchor:middle;fill:#874064;fill-opacity:1;fill-rule:nonzero;stroke:#6bca62;stroke-width:0.26458332;stroke-linecap:butt;stroke-linejoin:miter;stroke-miterlimit:4;stroke-dasharray:none;stroke-opacity:1"
         id="Outbreak">
        <path
           d="m -232.32641,193.10352 q -0.83165,0 -1.59677,0.32157 -0.75403,0.32157 -1.40825,0.88709 v -0.0111 q -0.65423,0.64314 -1.02016,1.49697 -0.35484,0.84274 -0.35484,1.79636 0,2.00704 1.375,3.3155 1.28628,1.21975 2.96066,1.21975 1.77418,0 3.06047,-1.21975 1.37499,-1.30846 1.37499,-3.33768 0,-0.9758 -0.35484,-1.80745 -0.35484,-0.83164 -1.02015,-1.4637 v 0.0111 q -0.65423,-0.56552 -1.43044,-0.88709 -0.7762,-0.32157 -1.58567,-0.32157 z m 0,-3.14917 q 1.07559,0 2.10684,0.2883 1.03124,0.27722 1.98486,0.80947 0.39919,0.25504 0.80947,0.5877 0.41028,0.33266 0.7873,0.70967 0.37701,0.36593 0.69858,0.77621 0.32157,0.41028 0.55443,0.82056 0.45464,0.79838 0.69859,1.752 0.24395,0.94254 0.24395,1.89616 0,2.30643 -1.25302,4.22477 -1.13104,1.66329 -3.06046,2.65018 -0.83165,0.42137 -1.7631,0.62097 -0.92035,0.21068 -1.90724,0.21068 -1.04233,0 -2.0514,-0.2883 -0.99798,-0.27722 -1.94051,-0.80947 -0.39919,-0.25504 -0.80947,-0.57661 -0.41028,-0.33266 -0.78729,-0.69859 -0.36593,-0.37701 -0.6875,-0.7762 -0.32157,-0.41028 -0.55443,-0.83165 -0.94254,-1.70765 -0.94254,-3.7036 0,-2.21773 1.24193,-4.19151 0.56552,-0.84274 1.34173,-1.49697 0.7762,-0.66531 1.71873,-1.13104 h -0.0111 q 0.82056,-0.42136 1.72982,-0.63205 0.92036,-0.21068 1.85181,-0.21068 z"
           style="fill:#874064;fill-opacity:1;fill-rule:nonzero;stroke:#6bca62;stroke-width:0.26458332;stroke-miterlimit:4;stroke-dasharray:none;stroke-opacity:1"
           id="path12"
           inkscape:connector-curvature="0" />
        <path
           d="m -212.71061,190.40898 q 0.31048,0 0.31048,0.33266 v 7.62898 q 0,1.48588 -0.14416,2.48386 -0.13306,0.98689 -0.43245,1.55241 v -0.0111 q -1.34173,2.67236 -4.83465,2.67236 -2.38405,0 -3.79231,-1.30846 -1.14213,-1.10886 -1.40826,-2.42841 -0.0887,-0.5877 -0.14415,-1.29737 -0.0554,-0.72076 -0.0554,-1.6633 v -7.62898 q 0,-0.33266 0.31048,-0.33266 h 2.65018 q 0.33266,0 0.33266,0.33266 v 8.34974 q 0,2.97176 2.11793,2.97176 2.10684,0 2.10684,-2.97176 v -8.34974 q 0,-0.33266 0.33266,-0.33266 z"
           style="fill:#874064;fill-opacity:1;fill-rule:nonzero;stroke:#6bca62;stroke-width:0.26458332;stroke-miterlimit:4;stroke-dasharray:none;stroke-opacity:1"
           id="path14"
           inkscape:connector-curvature="0" />
        <path
           d="m -203.4516,190.40898 q 0.33266,0 0.33266,0.33266 v 2.20664 q 0,0.33266 -0.33266,0.33266 h -2.1512 v 11.2217 q 0,0.32157 -0.33266,0.32157 h -2.57256 q -0.33266,0 -0.33266,-0.32157 v -11.2217 h -2.16228 q -0.33266,0 -0.33266,-0.33266 v -2.20664 q 0,-0.33266 0.33266,-0.33266 z"
           style="fill:#874064;fill-opacity:1;fill-rule:nonzero;stroke:#6bca62;stroke-width:0.26458332;stroke-miterlimit:4;stroke-dasharray:none;stroke-opacity:1"
           id="path16"
           inkscape:connector-curvature="0" />
        <path
           d="m -198.90526,193.28094 v 2.77216 h 0.60987 q 1.06451,0 1.51915,-0.39919 0.37701,-0.34375 0.37701,-0.99798 0,-0.69858 -0.47681,-1.03124 -0.47681,-0.34375 -1.41935,-0.34375 z m 0,8.69349 h 0.876 q 1.90725,0 1.90725,-1.5635 0,-0.43246 -0.14416,-0.73185 -0.14415,-0.31048 -0.41028,-0.51008 l 0.0111,0.0111 q -0.47681,-0.25504 -1.3639,-0.25504 h -0.876 z m -2.77216,2.84978 q -0.29939,0 -0.29939,-0.32157 v -13.761 q 0,-0.33266 0.29939,-0.33266 h 3.77014 q 1.11995,0 1.67438,0.16633 0.66532,0.21068 1.2641,0.63205 0.59879,0.42137 1.02016,1.05342 0.31048,0.53226 0.46572,1.0756 0.16633,0.53226 0.16633,1.10887 0,0.69858 -0.21068,1.28628 -0.1996,0.57661 -0.5877,1.03124 -0.0887,0.0887 -0.23286,0.22177 -0.14415,0.12198 -0.32157,0.25504 0.86491,0.56552 1.29737,1.3639 0.44354,0.79839 0.44354,1.85181 0,1.63003 -0.82056,2.74998 -0.42136,0.56552 -0.96471,0.93144 -0.54334,0.35484 -1.21975,0.51008 h 0.0111 q -0.31048,0.0887 -0.75403,0.13306 -0.43245,0.0444 -0.99797,0.0444 z"
           style="fill:#874064;fill-opacity:1;fill-rule:nonzero;stroke:#6bca62;stroke-width:0.26458332;stroke-miterlimit:4;stroke-dasharray:none;stroke-opacity:1"
           id="path18"
           inkscape:connector-curvature="0" />
        <path
           d="m -188.38214,193.28094 v 3.65925 h 0.17741 q 0.47682,0 0.79839,-0.0222 0.32157,-0.0222 0.51007,-0.0665 h -0.0111 q 0.74294,-0.22177 1.13105,-0.79838 h -0.0111 q 0.12197,-0.23286 0.19959,-0.47681 0.0776,-0.25504 0.0776,-0.47682 0,-0.25503 -0.0998,-0.53225 -0.0998,-0.2883 -0.26612,-0.53225 -0.22178,-0.27722 -0.55443,-0.45464 -0.32157,-0.18851 -0.74294,-0.25504 -0.12198,-0.0222 -0.38811,-0.0333 -0.25503,-0.0111 -0.64314,-0.0111 z m -3.27115,-2.5393 q 0,-0.33266 0.33266,-0.33266 h 3.79231 q 0.74294,0 1.34173,0.0776 0.60987,0.0665 1.03124,0.22177 0.76511,0.27722 1.39717,0.79839 0.63205,0.51007 1.04233,1.14213 0.2883,0.53225 0.45463,1.13104 0.16633,0.59878 0.16633,1.24192 0,1.55241 -0.83165,2.62801 -0.82055,1.06451 -2.47276,1.71874 0.12197,0.18851 0.23286,0.35484 0.11089,0.16633 0.23286,0.35483 0.12198,0.21069 0.25504,0.39919 0.13306,0.18851 0.27722,0.39919 0.12197,0.17742 0.23286,0.35484 0.11088,0.17742 0.22177,0.35484 0.46572,0.69858 0.90927,1.38608 0.45463,0.6764 0.89818,1.3639 v -0.0111 q 0.12197,0.15524 0.0333,0.33266 -0.0776,0.16633 -0.29939,0.16633 h -3.01611 q -0.12197,0 -0.19959,-0.0554 -0.0665,-0.0554 -0.0887,-0.12198 v 0.0111 q -0.47681,-0.77621 -0.89818,-1.47479 -0.42137,-0.69858 -0.85383,-1.39717 -0.13306,-0.21068 -0.24395,-0.37701 -0.0998,-0.16633 -0.21068,-0.33266 -0.0998,-0.16633 -0.21069,-0.34375 -0.11088,-0.1885 -0.25503,-0.42137 v 4.19151 q 0,0.32157 -0.33266,0.32157 h -2.60583 q -0.33266,0 -0.33266,-0.32157 z"
           style="fill:#874064;fill-opacity:1;fill-rule:nonzero;stroke:#6bca62;stroke-width:0.26458332;stroke-miterlimit:4;stroke-dasharray:none;stroke-opacity:1"
           id="path20"
           inkscape:connector-curvature="0" />
        <path
           d="m -173.64535,190.40898 q 0.32157,0 0.32157,0.33266 v 2.20664 q 0,0.33266 -0.32157,0.33266 h -3.88102 v 2.77216 h 3.88102 q 0.32157,0 0.32157,0.33266 v 2.20664 q 0,0.33265 -0.32157,0.33265 h -3.88102 v 3.04938 h 4.06953 q 0.31048,0 0.31048,0.32157 v 2.20664 q 0,0.32157 -0.31048,0.32157 h -6.97475 q -0.31049,0 -0.31049,-0.32157 v -13.761 q 0,-0.33266 0.31049,-0.33266 z"
           style="fill:#874064;fill-opacity:1;fill-rule:nonzero;stroke:#6bca62;stroke-width:0.26458332;stroke-miterlimit:4;stroke-dasharray:none;stroke-opacity:1"
           id="path22"
           inkscape:connector-curvature="0" />
        <path
           d="m -164.91859,200.20025 q -0.0222,-0.0555 -0.0333,-0.0998 0,-0.0554 -0.0222,-0.0998 -0.13306,-0.46572 -0.27721,-0.90927 -0.13307,-0.44354 -0.27722,-0.88709 -0.0998,-0.29939 -0.18851,-0.55443 -0.0776,-0.26613 -0.16633,-0.53225 -0.0776,-0.26613 -0.17741,-0.55444 -0.0887,-0.29939 -0.1996,-0.68749 -0.0554,0.18851 -0.12197,0.36592 -0.0554,0.16633 -0.11089,0.35484 -0.13306,0.44355 -0.26613,0.876 -0.13306,0.42137 -0.26612,0.84274 -0.12198,0.44354 -0.24395,0.83165 -0.12198,0.37701 -0.25504,0.79838 h -0.0111 q -0.0333,0.0998 -0.0333,0.13306 0,0.0222 -0.0333,0.12198 z m 0.94253,2.7278 h -4.50199 q -0.0665,0.18851 -0.13306,0.39919 -0.0665,0.21069 -0.12197,0.39919 -0.0776,0.22178 -0.14416,0.44355 -0.0554,0.21068 -0.11088,0.42137 -0.0333,0.14415 -0.12198,0.1885 -0.0887,0.0444 -0.21068,0.0444 h -2.69454 q -0.42137,0 -0.27722,-0.41028 l 4.81247,-13.761 -0.0111,0.0111 q 0.0444,-0.25504 0.2994,-0.25504 h 2.1401 q 0.0998,0 0.17742,0.0665 0.0887,0.0554 0.0998,0.18851 l -0.0111,-0.0222 q 0.59879,1.72983 1.18648,3.44857 0.5877,1.70765 1.1754,3.43748 0.59879,1.72982 1.18648,3.44856 0.59879,1.71874 1.19758,3.43748 0.14415,0.41028 -0.27722,0.41028 h -2.81651 q -0.12198,0 -0.21069,-0.0444 -0.0887,-0.0554 -0.11088,-0.1885 v 0.0111 z"
           style="fill:#874064;fill-opacity:1;fill-rule:nonzero;stroke:#6bca62;stroke-width:0.26458332;stroke-miterlimit:4;stroke-dasharray:none;stroke-opacity:1"
           id="path24"
           inkscape:connector-curvature="0" />
        <path
           d="m -155.54869,195.03294 q 0.59878,-0.70967 1.18648,-1.40825 0.5877,-0.70968 1.18648,-1.43044 l 0.6875,-0.82056 q 0.17742,-0.21068 0.34375,-0.41028 0.16633,-0.21068 0.34375,-0.42137 0.0554,-0.0665 0.12197,-0.0998 0.0776,-0.0333 0.14415,-0.0333 h 3.01611 q 0.22177,0 0.31048,0.17742 0.0998,0.17742 -0.0444,0.36592 v -0.0111 q -0.59879,0.73185 -1.18648,1.4637 -0.5877,0.73185 -1.18649,1.4637 -0.59879,0.74293 -1.16431,1.44152 -0.56552,0.68749 -1.15321,1.41934 0.54334,0.7873 1.06451,1.54132 0.52116,0.74294 1.05342,1.50806 0.7762,1.11995 1.58567,2.28426 0.80947,1.16431 1.59676,2.28426 0.0887,0.14415 0.0111,0.31048 -0.0776,0.16633 -0.29939,0.16633 h -3.23788 q -0.0555,0 -0.12198,-0.0222 -0.0665,-0.0333 -0.11088,-0.0887 -0.0111,-0.0111 -0.0111,-0.0222 -0.37702,-0.52117 -0.73185,-1.02016 -0.35484,-0.51008 -0.70967,-1.00907 -0.5877,-0.82055 -1.14213,-1.58567 -0.55444,-0.7762 -1.15322,-1.63003 -0.17742,0.23286 -0.39919,0.42137 v 4.63505 q 0,0.32157 -0.33266,0.32157 h -2.6391 q -0.33266,0 -0.33266,-0.32157 v -13.761 q 0,-0.33266 0.33266,-0.33266 h 2.6391 q 0.33266,0 0.33266,0.33266 z"
           style="fill:#874064;fill-opacity:1;fill-rule:nonzero;stroke:#6bca62;stroke-width:0.26458332;stroke-miterlimit:4;stroke-dasharray:none;stroke-opacity:1"
           id="path26"
           inkscape:connector-curvature="0" />
      </g>
    </g>
  </g>
</svg>
