<?xml version="1.0" encoding="UTF-8" standalone="no"?>
<!-- Created with Inkscape (http://www.inkscape.org/) -->

<svg
   xmlns:dc="http://purl.org/dc/elements/1.1/"
   xmlns:cc="http://creativecommons.org/ns#"
   xmlns:rdf="http://www.w3.org/1999/02/22-rdf-syntax-ns#"
   xmlns:svg="http://www.w3.org/2000/svg"
   xmlns="http://www.w3.org/2000/svg"
   xmlns:sodipodi="http://sodipodi.sourceforge.net/DTD/sodipodi-0.dtd"
   xmlns:inkscape="http://www.inkscape.org/namespaces/inkscape"
   width="190"
   height="235"
   viewBox="0 0 50.270832 62.177085"
   version="1.1"
   id="svg4558"
   inkscape:version="0.92.2 (5c3e80d, 2017-08-06)"
   sodipodi:docname="Alphabeta.svg">
  <defs
     id="defs4552" />
  <sodipodi:namedview
     id="base"
     pagecolor="#ffffff"
     bordercolor="#666666"
     borderopacity="1.0"
     inkscape:pageopacity="0.0"
     inkscape:pageshadow="2"
     inkscape:zoom="3.5641297"
     inkscape:cx="95.25042"
     inkscape:cy="117.50924"
     inkscape:document-units="px"
     inkscape:current-layer="layer1"
     showgrid="false"
     borderlayer="true"
     units="px"
     inkscape:window-width="1920"
     inkscape:window-height="1017"
     inkscape:window-x="-8"
     inkscape:window-y="-8"
     inkscape:window-maximized="1" />
  <metadata
     id="metadata4555">
    <rdf:RDF>
      <cc:Work
         rdf:about="">
        <dc:format>image/svg+xml</dc:format>
        <dc:type
           rdf:resource="http://purl.org/dc/dcmitype/StillImage" />
        <dc:title></dc:title>
      </cc:Work>
    </rdf:RDF>
  </metadata>
  <g
     inkscape:label="Layer 1"
     inkscape:groupmode="layer"
     id="layer1"
     transform="translate(0,-234.8229)">
    <path
       inkscape:connector-curvature="0"
       style="font-style:normal;font-variant:normal;font-weight:normal;font-stretch:normal;font-size:50.79999924px;line-height:1.25;font-family:Quantify;-inkscape-font-specification:Quantify;letter-spacing:0px;word-spacing:0px;fill:#000000;fill-opacity:1;stroke:none;stroke-width:0.26476923"
       d="m 13.792447,235.08356 c -1.79745,0 -3.49306,0.3554 -5.0870205,1.0666 -1.59397,0.67733 -2.98433,1.60881 -4.17133,2.79415 -1.187,1.18533 -2.13672,2.5739 -2.84892,4.16563 -0.67828,1.59174 -1.01750999,3.30216 -1.01750999,5.13095 0,1.79494 0.33922999,3.48806 1.01750999,5.0798 0.7122,1.59173 1.66192,2.9803 2.84892,4.16563 1.187,1.18534 2.57736,2.11682 4.17133,2.79415 1.5939605,0.67733 3.2895705,1.01596 5.0870205,1.01596 2.44183,0 4.4939,-0.6437 6.1557,-1.93063 l 0.0506,-0.0506 -2.54351,-4.52117 v -0.10181 h -0.0506 c -0.74612,0.37254 -1.64514,0.55914 -2.69648,0.55914 -0.98351,0 -1.89926,-0.1866 -2.74712,-0.55914 -0.84786,-0.37253 -1.61098,-0.88047 -2.2892605,-1.52394 -0.64438,-0.64347 -1.15295,-1.38834 -1.52601,-2.235 -0.37306,-0.84667 -0.55966,-1.74408 -0.55966,-2.69235 0,-0.98213 0.1866,-1.89683 0.55966,-2.7435 0.37306,-0.88053 0.88163,-1.6254 1.52601,-2.235 0.6782805,-0.64347 1.4414005,-1.15141 2.2892605,-1.52394 0.84786,-0.37253 1.76361,-0.55862 2.74712,-0.55862 0.9496,0 1.84862,0.18609 2.69648,0.55862 0.88177,0.33867 1.64437,0.82983 2.28874,1.47329 0.67829,0.64347 1.20411,1.38834 1.57717,2.23501 0.37306,0.84667 0.55965,1.76137 0.55965,2.7435 v 12.58321 h -0.015 v 35.5601 h 6.705539 v -3.45456 c 1.8288,2.57386 4.48747,3.86074 7.97574,3.86074 1.79493,0 3.488581,-0.33862 5.080309,-1.01596 1.591731,-0.67733 2.980301,-1.60881 4.16564,-2.79414 1.185331,-1.18533 2.116291,-2.57339 2.793622,-4.16512 0.7112,-1.59174 1.06712,-3.28538 1.06712,-5.08031 0,-1.79493 -0.35592,-3.48806 -1.06712,-5.07979 -0.677331,-1.59174 -1.608291,-2.98031 -2.793622,-4.16564 -1.185339,-1.18534 -2.573909,-2.11681 -4.16564,-2.79415 -1.591728,-0.67733 -3.285379,-1.01596 -5.080309,-1.01596 -2.4384,0 -4.48745,0.6437 -6.146909,1.93063 l -0.0506,0.0506 2.48925,4.57182 0.0506,0.1018 0.0512,-0.0506 c 0.9144,-0.37253 1.828588,-0.55914 2.742988,-0.55914 0.948262,0 1.84567,0.18661 2.692342,0.55914 0.880528,0.33867 1.62592,0.82931 2.23552,1.47278 0.64347,0.64346 1.151409,1.38885 1.523939,2.23552 0.372531,0.84667 0.558621,1.76085 0.558621,2.74299 0,0.98213 -0.18609,1.89683 -0.558621,2.7435 -0.37253,0.84666 -0.880469,1.59154 -1.523939,2.235 -0.6096,0.6096 -1.354992,1.10077 -2.23552,1.4733 -0.846672,0.37253 -1.74408,0.55862 -2.692342,0.55862 -0.982138,0 -1.913609,-0.18609 -2.794148,-0.55862 -0.846661,-0.37253 -1.59154,-0.8637 -2.235001,-1.4733 -0.6096,-0.64346 -1.10077,-1.38834 -1.473298,-2.235 -0.372542,-0.84667 -0.558631,-1.76137 -0.558631,-2.7435 V 260.7735 h -0.003 v -25.2817 h -0.0744 v -0.002 h -6.66419 v 3.45406 c -0.9496,-1.25307 -2.08592,-2.20133 -3.40858,-2.84479 -1.32265,-0.67734 -2.86563,-1.01596 -4.62917,-1.01596 z"
       id="path37"
       inkscape:export-xdpi="395.48001"
       inkscape:export-ydpi="395.48001" />
  </g>
</svg>
