<?xml version="1.0" encoding="UTF-8" standalone="no"?>
<!-- Created with Inkscape (http://www.inkscape.org/) -->

<svg
   xmlns:dc="http://purl.org/dc/elements/1.1/"
   xmlns:cc="http://creativecommons.org/ns#"
   xmlns:rdf="http://www.w3.org/1999/02/22-rdf-syntax-ns#"
   xmlns:svg="http://www.w3.org/2000/svg"
   xmlns="http://www.w3.org/2000/svg"
   xmlns:sodipodi="http://sodipodi.sourceforge.net/DTD/sodipodi-0.dtd"
   xmlns:inkscape="http://www.inkscape.org/namespaces/inkscape"
   width="490"
   height="270"
   viewBox="0 0 129.64583 71.437502"
   version="1.1"
   id="svg83"
   inkscape:version="0.92.2 (5c3e80d, 2017-08-06)"
   sodipodi:docname="Alphabeta_Worded.svg">
  <defs
     id="defs77" />
  <sodipodi:namedview
     id="base"
     pagecolor="#ffffff"
     bordercolor="#666666"
     borderopacity="1.0"
     inkscape:pageopacity="0.0"
     inkscape:pageshadow="2"
     inkscape:zoom="3.1187948"
     inkscape:cx="245.08739"
     inkscape:cy="134.60672"
     inkscape:document-units="px"
     inkscape:current-layer="layer1"
     showgrid="false"
     units="px"
     borderlayer="true"
     inkscape:window-width="1920"
     inkscape:window-height="1017"
     inkscape:window-x="-8"
     inkscape:window-y="-8"
     inkscape:window-maximized="1" />
  <metadata
     id="metadata80">
    <rdf:RDF>
      <cc:Work
         rdf:about="">
        <dc:format>image/svg+xml</dc:format>
        <dc:type
           rdf:resource="http://purl.org/dc/dcmitype/StillImage" />
        <dc:title></dc:title>
      </cc:Work>
    </rdf:RDF>
  </metadata>
  <g
     inkscape:label="Layer 1"
     inkscape:groupmode="layer"
     id="layer1"
     transform="translate(0,-225.56248)">
    <g
       transform="translate(-0.32018651,-0.39783996)"
       id="g56">
      <path
         inkscape:export-filename="C:\Test\text10-5.png"
         inkscape:export-ydpi="252.13"
         inkscape:export-xdpi="252.13"
         id="path37"
         d="m 13.792447,235.08356 c -1.79745,0 -3.49306,0.3554 -5.0870205,1.0666 -1.59397,0.67733 -2.98433,1.60881 -4.17133,2.79415 -1.187,1.18533 -2.13672,2.5739 -2.84892,4.16563 -0.67828,1.59174 -1.01750999,3.30216 -1.01750999,5.13095 0,1.79494 0.33922999,3.48806 1.01750999,5.0798 0.7122,1.59173 1.66192,2.9803 2.84892,4.16563 1.187,1.18534 2.57736,2.11682 4.17133,2.79415 1.5939605,0.67733 3.2895705,1.01596 5.0870205,1.01596 2.44183,0 4.4939,-0.6437 6.1557,-1.93063 l 0.0506,-0.0506 -2.54351,-4.52117 v -0.10181 h -0.0506 c -0.74612,0.37254 -1.64514,0.55914 -2.69648,0.55914 -0.98351,0 -1.89926,-0.1866 -2.74712,-0.55914 -0.84786,-0.37253 -1.61098,-0.88047 -2.2892605,-1.52394 -0.64438,-0.64347 -1.15295,-1.38834 -1.52601,-2.235 -0.37306,-0.84667 -0.55966,-1.74408 -0.55966,-2.69235 0,-0.98213 0.1866,-1.89683 0.55966,-2.7435 0.37306,-0.88053 0.88163,-1.6254 1.52601,-2.235 0.6782805,-0.64347 1.4414005,-1.15141 2.2892605,-1.52394 0.84786,-0.37253 1.76361,-0.55862 2.74712,-0.55862 0.9496,0 1.84862,0.18609 2.69648,0.55862 0.88177,0.33867 1.64437,0.82983 2.28874,1.47329 0.67829,0.64347 1.20411,1.38834 1.57717,2.23501 0.37306,0.84667 0.55965,1.76137 0.55965,2.7435 v 12.58321 h -0.015 v 35.5601 h 6.705539 v -3.45456 c 1.8288,2.57386 4.48747,3.86074 7.97574,3.86074 1.79493,0 3.488581,-0.33862 5.080309,-1.01596 1.591731,-0.67733 2.980301,-1.60881 4.16564,-2.79414 1.185331,-1.18533 2.116291,-2.57339 2.793622,-4.16512 0.7112,-1.59174 1.06712,-3.28538 1.06712,-5.08031 0,-1.79493 -0.35592,-3.48806 -1.06712,-5.07979 -0.677331,-1.59174 -1.608291,-2.98031 -2.793622,-4.16564 -1.185339,-1.18534 -2.573909,-2.11681 -4.16564,-2.79415 -1.591728,-0.67733 -3.285379,-1.01596 -5.080309,-1.01596 -2.4384,0 -4.48745,0.6437 -6.146909,1.93063 l -0.0506,0.0506 2.48925,4.57182 0.0506,0.1018 0.0512,-0.0506 c 0.9144,-0.37253 1.828588,-0.55914 2.742988,-0.55914 0.948262,0 1.84567,0.18661 2.692342,0.55914 0.880528,0.33867 1.62592,0.82931 2.23552,1.47278 0.64347,0.64346 1.151409,1.38885 1.523939,2.23552 0.372531,0.84667 0.558621,1.76085 0.558621,2.74299 0,0.98213 -0.18609,1.89683 -0.558621,2.7435 -0.37253,0.84666 -0.880469,1.59154 -1.523939,2.235 -0.6096,0.6096 -1.354992,1.10077 -2.23552,1.4733 -0.846672,0.37253 -1.74408,0.55862 -2.692342,0.55862 -0.982138,0 -1.913609,-0.18609 -2.794148,-0.55862 -0.846661,-0.37253 -1.59154,-0.8637 -2.235001,-1.4733 -0.6096,-0.64346 -1.10077,-1.38834 -1.473298,-2.235 -0.372542,-0.84667 -0.558631,-1.76137 -0.558631,-2.7435 V 260.7735 h -0.003 v -25.2817 h -0.0744 v -0.002 h -6.66419 v 3.45406 c -0.9496,-1.25307 -2.08592,-2.20133 -3.40858,-2.84479 -1.32265,-0.67734 -2.86563,-1.01596 -4.62917,-1.01596 z"
         style="font-style:normal;font-variant:normal;font-weight:normal;font-stretch:normal;font-size:50.79999924px;line-height:1.25;font-family:Quantify;-inkscape-font-specification:Quantify;letter-spacing:0px;word-spacing:0px;fill:#000000;fill-opacity:1;stroke:none;stroke-width:0.26476923"
         inkscape:connector-curvature="0" />
      <g
         id="text10"
         style="font-style:normal;font-weight:normal;font-size:46.17996979px;line-height:1.25;font-family:sans-serif;letter-spacing:0px;word-spacing:0px;fill:#000000;fill-opacity:1;stroke:none;stroke-width:1.15449929"
         aria-label="lpha">
        <path
           inkscape:connector-curvature="0"
           id="path30"
           style="font-style:normal;font-variant:normal;font-weight:normal;font-stretch:normal;font-family:Quantify;-inkscape-font-specification:Quantify;stroke-width:1.15449929"
           d="m 30.280403,226.27409 h 6.095756 v 32.32598 h -6.141936 z" />
        <path
           inkscape:connector-curvature="0"
           id="path32"
           style="font-style:normal;font-variant:normal;font-weight:normal;font-stretch:normal;font-family:Quantify;-inkscape-font-specification:Quantify;stroke-width:1.15449929"
           d="m 52.694284,235.14064 q 2.493718,0 4.710357,0.96978 2.216638,0.9236 3.832937,2.58608 1.662479,1.6163 2.586078,3.78676 0.96978,2.17046 0.96978,4.66417 0,2.5399 -0.96978,4.75654 -0.923599,2.21664 -2.586078,3.87912 -1.616299,1.6163 -3.832937,2.58608 -2.216639,0.9236 -4.710357,0.9236 -3.417318,0 -5.680137,-1.8472 v -0.0462 l 2.308999,-4.24856 0.04618,0.0462 q 1.246859,0.55416 2.539898,0.55416 1.339219,0 2.539899,-0.50798 1.200679,-0.50798 2.078098,-1.3854 0.9236,-0.9236 1.431579,-2.12428 0.50798,-1.20068 0.50798,-2.58608 0,-1.33921 -0.50798,-2.49371 -0.507979,-1.20068 -1.431579,-2.0781 -0.877419,-0.87742 -2.078098,-1.3854 -1.20068,-0.50798 -2.539899,-0.50798 -1.385399,0 -2.586078,0.50798 -1.154499,0.50798 -2.031919,1.3854 -0.877419,0.87742 -1.385399,2.0781 -0.50798,1.1545 -0.50798,2.49371 v 20.68863 h -6.234295 v -32.32598 h 6.234295 v 3.14024 q 2.493719,-3.50968 7.296436,-3.50968 z" />
        <path
           inkscape:connector-curvature="0"
           id="path34"
           style="font-style:normal;font-variant:normal;font-weight:normal;font-stretch:normal;font-family:Quantify;-inkscape-font-specification:Quantify;stroke-width:1.15449929"
           d="m 67.632061,226.27409 h 6.188116 l -0.04618,32.32598 h -6.188116 z m 21.196606,12.00679 q 2.078098,2.7708 2.078098,8.77419 v 11.545 h -6.188116 v -11.545 q 0,-1.24685 -0.09236,-2.40135 -0.04618,-1.1545 -0.461799,-2.03192 -0.41562,-0.87742 -1.339219,-1.3854 -0.9236,-0.50798 -2.632259,-0.50798 -1.339219,0 -2.909338,0.73888 l -0.04618,0.0462 -0.04618,-0.0924 -2.216638,-3.97148 0.04618,-0.0462 q 1.200679,-1.06214 2.678438,-1.57012 1.477759,-0.55416 3.232598,-0.55416 5.587776,0 7.896775,3.0017 z" />
        <path
           inkscape:connector-curvature="0"
           id="path36"
           style="font-style:normal;font-variant:normal;font-weight:normal;font-stretch:normal;font-family:Quantify;-inkscape-font-specification:Quantify;stroke-width:1.15449929"
           d="m 118.44013,235.51008 v 23.08999 h -6.04957 v -11.545 q 0,-1.33921 -0.50798,-2.49371 -0.50798,-1.1545 -1.43158,-2.03192 -0.87742,-0.87742 -2.0781,-1.33922 -1.1545,-0.50798 -2.44754,-0.50798 -1.33922,0 -2.49372,0.50798 -1.1545,0.50798 -2.0781,1.3854 -0.87742,0.83124 -1.385397,2.03192 -0.507979,1.1545 -0.507979,2.49371 0,1.29304 0.507979,2.44754 0.507977,1.1545 1.385397,2.03192 0.9236,0.87742 2.0781,1.3854 1.1545,0.50798 2.49372,0.50798 1.43158,0 2.44754,-0.50798 h 0.0462 v 0.0924 l 2.309,4.11002 -0.0462,0.0462 q -2.26282,1.75484 -5.58778,1.75484 -2.44754,0 -4.618,-0.9236 -2.170456,-0.9236 -3.786755,-2.5399 -1.616299,-1.6163 -2.586078,-3.78676 -0.923599,-2.17046 -0.923599,-4.618 0,-2.49371 0.923599,-4.66417 0.969779,-2.17046 2.586078,-3.78676 1.616299,-1.6163 3.786755,-2.5399 2.17046,-0.96978 4.618,-0.96978 2.40136,0 4.20238,0.9236 1.80102,0.87742 3.09406,2.58608 v -3.14024 z" />
      </g>
      <g
         id="text10-5"
         style="font-style:normal;font-weight:normal;font-size:52.00245285px;line-height:1.25;font-family:sans-serif;letter-spacing:0px;word-spacing:0px;fill:#000000;fill-opacity:1;stroke:none;stroke-width:1.30006123"
         aria-label="eta">
        <path
           inkscape:connector-curvature="0"
           id="path39"
           style="font-style:normal;font-variant:normal;font-weight:normal;font-stretch:normal;font-family:Quantify;-inkscape-font-specification:Quantify;stroke-width:1.30006123"
           d="m 64.925864,270.25078 q 2.75613,0 5.200245,1.09206 2.444116,1.04004 4.264201,2.86013 1.820086,1.82009 2.860135,4.2642 1.092052,2.44412 1.092052,5.25225 0,1.50807 -0.312015,2.91214 l -0.052,0.104 H 64.769857 L 61.4417,281.43131 h 9.880466 q -0.728035,-2.1841 -2.444116,-3.58817 -1.664078,-1.40406 -3.952186,-1.40406 -1.404066,0 -2.652125,0.57202 -1.248059,0.57203 -2.184103,1.56008 -0.884042,0.93604 -1.404066,2.2881 -0.520025,1.30007 -0.520025,2.86014 0,1.19606 0.468022,2.49612 0.468022,1.24806 1.352064,2.2881 0.884042,1.04005 2.1321,1.76809 1.248059,0.67603 2.808133,0.67603 1.404066,0 2.54812,-0.36402 1.196057,-0.41602 2.236106,-1.76808 l 0.052,-0.052 0.104005,0.052 6.032285,2.65212 -0.104005,0.10401 q -1.872089,2.60012 -4.784226,4.05619 -2.860135,1.45607 -6.084287,1.45607 -2.808133,0 -5.30425,-1.04005 -2.444116,-1.04005 -4.264201,-2.86013 -1.820086,-1.82009 -2.912138,-4.26421 -1.040049,-2.44411 -1.040049,-5.20024 0,-2.80813 1.040049,-5.25225 1.092052,-2.44411 2.912138,-4.2642 1.820085,-1.82009 4.264201,-2.86013 2.496117,-1.09206 5.30425,-1.09206 z" />
        <path
           inkscape:connector-curvature="0"
           id="path41"
           style="font-style:normal;font-variant:normal;font-weight:normal;font-stretch:normal;font-family:Quantify;-inkscape-font-specification:Quantify;stroke-width:1.30006123"
           d="m 99.070349,273.37093 v 5.77227 h -3.848182 l -3.224152,-5.77227 z m -7.956375,14.40468 q 0,1.19606 0.832039,2.0281 0.884041,0.83204 2.080098,0.83204 h 5.044238 v 6.03228 h -5.044238 q -2.028096,0 -3.848182,-0.72803 -1.768083,-0.78004 -3.120147,-2.0801 -1.300061,-1.35207 -2.080098,-3.12015 -0.780037,-1.76808 -0.780037,-3.79618 v -7.80037 h -3.744176 v -5.77227 h 3.744176 v -9.41244 h 6.916327 z" />
        <path
           inkscape:connector-curvature="0"
           id="path43"
           style="font-style:normal;font-variant:normal;font-weight:normal;font-stretch:normal;font-family:Quantify;-inkscape-font-specification:Quantify;stroke-width:1.30006123"
           d="m 129.61854,270.6668 v 26.00123 h -6.81232 v -13.00061 q 0,-1.50807 -0.57203,-2.80814 -0.57203,-1.30006 -1.61208,-2.2881 -0.98804,-0.98805 -2.34011,-1.50807 -1.30006,-0.57203 -2.75613,-0.57203 -1.50807,0 -2.80813,0.57203 -1.30006,0.57202 -2.34011,1.56007 -0.98805,0.93604 -1.56007,2.28811 -0.57203,1.30006 -0.57203,2.80813 0,1.45607 0.57203,2.75613 0.57202,1.30006 1.56007,2.28811 1.04005,0.98804 2.34011,1.56007 1.30006,0.57203 2.80813,0.57203 1.61208,0 2.75613,-0.57203 h 0.052 v 0.10401 l 2.60012,4.62821 -0.052,0.052 q -2.54812,1.97609 -6.2923,1.97609 -2.75613,0 -5.20025,-1.04005 -2.44411,-1.04005 -4.2642,-2.86013 -1.82008,-1.82009 -2.91213,-4.26421 -1.04005,-2.44411 -1.04005,-5.20024 0,-2.80813 1.04005,-5.25225 1.09205,-2.44411 2.91213,-4.2642 1.82009,-1.82009 4.2642,-2.86013 2.44412,-1.09206 5.20025,-1.09206 2.70413,0 4.73222,1.04005 2.0281,0.98805 3.48417,2.91214 v -3.53617 z" />
      </g>
    </g>
  </g>
</svg>
