<?xml version="1.0" encoding="UTF-8" standalone="no"?>
<!-- Created with Inkscape (http://www.inkscape.org/) -->

<svg
   xmlns:dc="http://purl.org/dc/elements/1.1/"
   xmlns:cc="http://creativecommons.org/ns#"
   xmlns:rdf="http://www.w3.org/1999/02/22-rdf-syntax-ns#"
   xmlns:svg="http://www.w3.org/2000/svg"
   xmlns="http://www.w3.org/2000/svg"
   xmlns:sodipodi="http://sodipodi.sourceforge.net/DTD/sodipodi-0.dtd"
   xmlns:inkscape="http://www.inkscape.org/namespaces/inkscape"
   version="1.1"
   id="svg2"
   width="424"
   height="240"
   viewBox="0 0 424 240"
   sodipodi:docname="SIOTitleConcept2.svg"
   inkscape:version="0.92.3 (2405546, 2018-03-11)">
  <metadata
     id="metadata8">
    <rdf:RDF>
      <cc:Work
         rdf:about="">
        <dc:format>image/svg+xml</dc:format>
        <dc:type
           rdf:resource="http://purl.org/dc/dcmitype/StillImage" />
        <dc:title></dc:title>
      </cc:Work>
    </rdf:RDF>
  </metadata>
  <defs
     id="defs6" />
  <sodipodi:namedview
     pagecolor="#ffffff"
     bordercolor="#666666"
     borderopacity="1"
     objecttolerance="10"
     gridtolerance="10"
     guidetolerance="10"
     inkscape:pageopacity="0"
     inkscape:pageshadow="2"
     inkscape:window-width="1920"
     inkscape:window-height="1001"
     id="namedview4"
     showgrid="false"
     inkscape:zoom="3.309411"
     inkscape:cx="212.8381"
     inkscape:cy="119.14041"
     inkscape:window-x="0"
     inkscape:window-y="27"
     inkscape:window-maximized="1"
     inkscape:current-layer="svg2" />
  <g
     id="g12">
    <path
       style="fill:#2fccf5"
       d="M 0,120 V 0 H 212 424 V 120 240 H 212 0 Z"
       id="path22"
       inkscape:connector-curvature="0" />
    <path
       style="fill:#dfe918"
       d="M 0,132.27889 V 24.557777 l 6.2769053,6.221111 C 9.7292032,34.2005 13.007075,37 13.561065,37 14.115056,37 17.012576,34.525 20,31.5 22.987424,28.475 25.912424,26 26.5,26 c 0.587576,0 3.512576,2.475 6.5,5.5 2.987424,3.025 5.912424,5.5 6.5,5.5 0.587576,0 3.512576,-2.475 6.5,-5.5 2.987424,-3.025 5.912424,-5.5 6.5,-5.5 0.587576,0 3.512576,2.475 6.5,5.5 2.987424,3.025 5.912424,5.5 6.5,5.5 0.587576,0 3.512576,-2.475 6.5,-5.5 2.987424,-3.025 5.912424,-5.5 6.5,-5.5 0.587576,0 3.512576,2.475 6.5,5.5 2.987424,3.025 5.912424,5.5 6.5,5.5 0.587576,0 3.512576,-2.475 6.5,-5.5 2.98742,-3.025 5.91242,-5.5 6.5,-5.5 0.58758,0 3.51258,2.475 6.5,5.5 2.98742,3.025 5.91242,5.5 6.5,5.5 0.58758,0 3.51258,-2.475 6.5,-5.5 2.98742,-3.025 5.91242,-5.5 6.5,-5.5 0.58758,0 3.51258,2.475 6.5,5.5 2.98742,3.025 5.91242,5.5 6.5,5.5 0.58758,0 3.51258,-2.475 6.5,-5.5 2.98742,-3.025 5.91242,-5.5 6.5,-5.5 0.58758,0 3.51258,2.475 6.5,5.5 2.98742,3.025 5.91242,5.5 6.5,5.5 0.58758,0 3.51258,-2.475 6.5,-5.5 2.98742,-3.025 5.91242,-5.5 6.5,-5.5 0.58758,0 3.51258,2.475 6.5,5.5 2.98742,3.025 5.91242,5.5 6.5,5.5 0.58758,0 3.51258,-2.475 6.5,-5.5 2.98742,-3.025 5.91242,-5.5 6.5,-5.5 0.58758,0 3.51258,2.475 6.5,5.5 2.98742,3.025 5.91242,5.5 6.5,5.5 0.58758,0 3.51258,-2.475 6.5,-5.5 2.98742,-3.025 5.91242,-5.5 6.5,-5.5 0.58758,0 3.51258,2.475 6.5,5.5 2.98742,3.025 5.91242,5.5 6.5,5.5 0.58758,0 3.51258,-2.475 6.5,-5.5 2.98742,-3.025 5.91242,-5.5 6.5,-5.5 0.58758,0 3.51258,2.475 6.5,5.5 2.98742,3.025 5.91242,5.5 6.5,5.5 0.58758,0 3.51258,-2.475 6.5,-5.5 2.98742,-3.025 5.92128,-5.5 6.51967,-5.5 1.56376,0 7.22658,6.167192 7.63511,8.315129 0.19909,1.04679 4.1455,-5.831788 9.32302,-16.25 L 312.45559,0 H 368.2278 424 V 120 240 H 212 0 Z"
       id="path20"
       inkscape:connector-curvature="0" />
    <path
       style="fill:#185ae8"
       d="M 0,132.27889 V 24.557777 l 6.2769053,6.221111 C 9.7292032,34.2005 13.007075,37 13.561065,37 14.115056,37 17.012576,34.525 20,31.5 22.987424,28.475 25.912424,26 26.5,26 c 0.587576,0 3.512576,2.475 6.5,5.5 2.987424,3.025 5.912424,5.5 6.5,5.5 0.587576,0 3.512576,-2.475 6.5,-5.5 2.987424,-3.025 5.912424,-5.5 6.5,-5.5 0.587576,0 3.512576,2.475 6.5,5.5 2.987424,3.025 5.912424,5.5 6.5,5.5 0.587576,0 3.512576,-2.475 6.5,-5.5 2.987424,-3.025 5.912424,-5.5 6.5,-5.5 0.587576,0 3.512576,2.475 6.5,5.5 2.987424,3.025 5.912424,5.5 6.5,5.5 0.587576,0 3.512576,-2.475 6.5,-5.5 2.98742,-3.025 5.91242,-5.5 6.5,-5.5 0.58758,0 3.51258,2.475 6.5,5.5 2.98742,3.025 5.91242,5.5 6.5,5.5 0.58758,0 3.51258,-2.475 6.5,-5.5 2.98742,-3.025 5.91242,-5.5 6.5,-5.5 0.58758,0 3.51258,2.475 6.5,5.5 2.98742,3.025 5.91242,5.5 6.5,5.5 0.58758,0 3.51258,-2.475 6.5,-5.5 2.98742,-3.025 5.91242,-5.5 6.5,-5.5 0.58758,0 3.51258,2.475 6.5,5.5 2.98742,3.025 5.91242,5.5 6.5,5.5 0.58758,0 3.51258,-2.475 6.5,-5.5 2.98742,-3.025 5.91242,-5.5 6.5,-5.5 0.58758,0 3.51258,2.475 6.5,5.5 2.98742,3.025 5.91242,5.5 6.5,5.5 0.58758,0 3.51258,-2.475 6.5,-5.5 2.98742,-3.025 5.91242,-5.5 6.5,-5.5 0.58758,0 3.51258,2.475 6.5,5.5 2.98742,3.025 5.91242,5.5 6.5,5.5 0.58758,0 3.51258,-2.475 6.5,-5.5 2.98742,-3.025 5.91242,-5.5 6.5,-5.5 0.58758,0 3.51258,2.475 6.5,5.5 2.98742,3.025 5.91242,5.5 6.5,5.5 0.58758,0 3.51258,-2.475 6.5,-5.5 2.98742,-3.025 5.91242,-5.5 6.5,-5.5 0.58758,0 3.51258,2.475 6.5,5.5 2.98742,3.025 5.91242,5.5 6.5,5.5 0.58758,0 3.51258,-2.475 6.5,-5.5 2.98742,-3.025 5.92128,-5.5 6.51967,-5.5 1.55651,0 7.47033,6.318046 7.53273,8.047607 0.0288,0.798816 -22.80868,47.428962 -50.75,103.622543 L 192.5,239.84031 96.25,239.92015 0,240 Z M 326.0551,239.25 C 326.0854,238.8375 348.11061,194.625 375,141 l 48.8898,-97.5 0.0551,98.25 L 424,240 h -49 c -26.95,0 -48.97521,-0.3375 -48.9449,-0.75 z"
       id="path18"
       inkscape:connector-curvature="0" />
    <path
       style="fill:#ea1a18"
       d="M 326.0551,239.25 C 326.0854,238.8375 348.11061,194.625 375,141 l 48.8898,-97.5 0.0551,98.25 L 424,240 h -49 c -26.95,0 -48.97521,-0.3375 -48.9449,-0.75 z M 0,188.01405 V 182 h 33.940983 c 18.667541,0 34.159646,0.3538 34.4269,0.78623 0.267255,0.43243 -0.720294,3.01993 -2.194552,5.75 L 63.492861,193.5 31.746431,193.76405 0,194.02809 Z M 0,159.00463 V 153 h 106.44098 c 58.54254,0 106.65965,0.3538 106.9269,0.78623 0.26726,0.43243 -0.72045,3.01993 -2.1949,5.75 L 208.49217,164.5 104.24608,164.75463 0,165.00926 Z M 0,130.00435 V 124 h 113.44098 c 62.39254,0 113.65965,0.3538 113.9269,0.78623 0.26726,0.43243 -0.72045,3.01993 -2.1949,5.75 L 222.49216,135.5 111.24608,135.75435 0,136.00869 Z"
       id="path16"
       inkscape:connector-curvature="0" />
    <path
       style="fill:#1b1f2a"
       d="M 0,188.01405 V 182 h 33.940983 c 18.667541,0 34.159646,0.3538 34.4269,0.78623 0.267255,0.43243 -0.720294,3.01993 -2.194552,5.75 L 63.492861,193.5 31.746431,193.76405 0,194.02809 Z M 0,159.00463 V 153 h 106.44098 c 58.54254,0 106.65965,0.3538 106.9269,0.78623 0.26726,0.43243 -0.72045,3.01993 -2.1949,5.75 L 208.49217,164.5 104.24608,164.75463 0,165.00926 Z M 0,130.00435 V 124 h 113.44098 c 62.39254,0 113.65965,0.3538 113.9269,0.78623 0.26726,0.43243 -0.72045,3.01993 -2.1949,5.75 L 222.49216,135.5 111.24608,135.75435 0,136.00869 Z"
       id="path14"
       inkscape:connector-curvature="0" />
  </g>
</svg>
